<?xml version="1.0" encoding="UTF-8"?>
<svg version="1.1" xmlns="http://www.w3.org/2000/svg" width="364" height="108">
<path d="M0 0 C120.12 0 240.24 0 364 0 C364 35.64 364 71.28 364 108 C243.88 108 123.76 108 0 108 C0 72.36 0 36.72 0 0 Z " fill="#FCFCFC" transform="translate(0,0)"/>
<path d="M0 0 C120.12 0 240.24 0 364 0 C364 35.64 364 71.28 364 108 C243.88 108 123.76 108 0 108 C0 72.36 0 36.72 0 0 Z M10 5 C10 36.68 10 68.36 10 101 C123.52 101 237.04 101 354 101 C354 69.32 354 37.64 354 5 C240.48 5 126.96 5 10 5 Z " fill="#000000" transform="translate(0,0)"/>
<path d="M0 0 C4.125 -0.0825 8.25 -0.165 12.5 -0.25 C13.78455078 -0.28641602 15.06910156 -0.32283203 16.39257812 -0.36035156 C23.44194097 -0.42834479 28.04029578 0.14868171 34 4 C37.92346004 7.92346004 38.22485353 11.03137579 38.25 16.375 C38.1861054 18.25076302 38.10914609 20.12632538 38 22 C39.2684375 22.12375 39.2684375 22.12375 40.5625 22.25 C44.64004245 23.13964563 47.77447532 24.32020803 51 27 C54.08534103 32.07588364 55.06854409 37.17793266 54 43 C51.8647318 48.05258936 49.12900258 51.76428093 44 54 C38.56218827 55.76759569 32.63344773 55.05633448 27 55 C27 59.29 27 63.58 27 68 C23.04 68 19.08 68 15 68 C15 60.74 15 53.48 15 46 C25.75 45.625 25.75 45.625 29.12011719 45.52197266 C30.4451123 45.46855713 30.4451123 45.46855713 31.796875 45.4140625 C32.69760742 45.3826416 33.59833984 45.3512207 34.52636719 45.31884766 C37.12413135 44.98399965 38.79391103 44.3957016 41 43 C42.41441874 40.17116253 42.31900332 38.12623255 42 35 C39.01495086 32.05267591 36.69390498 31.60260847 32.578125 31.48828125 C31.55332031 31.45283203 30.52851562 31.41738281 29.47265625 31.38085938 C28.40917969 31.35830078 27.34570312 31.33574219 26.25 31.3125 C25.17105469 31.27833984 24.09210937 31.24417969 22.98046875 31.20898438 C20.32041623 31.12659337 17.66068965 31.05741355 15 31 C15 28.03 15 25.06 15 22 C18.63 22 22.26 22 26 22 C26 18.37 26 14.74 26 11 C18.575 10.01 18.575 10.01 11 9 C11 21.21 11 33.42 11 46 C7.37 46 3.74 46 0 46 C0 30.82 0 15.64 0 0 Z " fill="#767777" transform="translate(28,21)"/>
<path d="M0 0 C4.36987151 2.75508536 8.38590871 6.62644094 9.9140625 11.65625 C10.07068359 12.5225 10.07068359 12.5225 10.23046875 13.40625 C2.68784543 12.52627728 2.68784543 12.52627728 0.265625 11.890625 C-5.29093601 10.56814215 -10.88077522 10.51644764 -15.89453125 13.40625 C-17.31765625 14.39625 -17.31765625 14.39625 -18.76953125 15.40625 C-18.19976562 15.09171875 -17.63 14.7771875 -17.04296875 14.453125 C-11.07963398 11.70712205 -5.7902219 12.23880137 0.23046875 14.40625 C3.88816029 14.8736217 7.55200041 15.15752794 11.23046875 15.40625 C11.23046875 18.70625 11.23046875 22.00625 11.23046875 25.40625 C7.05393273 25.55279512 3.87925651 25.59848341 -0.14453125 24.40625 C-5.38347186 22.961025 -10.80958186 22.19488281 -15.96484375 24.3046875 C-18.09745163 25.48414685 -18.09745163 25.48414685 -20.76953125 27.40625 C-20.19976562 27.09171875 -19.63 26.7771875 -19.04296875 26.453125 C-13.05710229 23.69674663 -7.81431023 24.2727986 -1.76953125 26.40625 C2.2218769 26.87884916 6.21931711 27.15960961 10.23046875 27.40625 C8.80347019 33.90702122 4.99497297 37.96533859 -0.48046875 41.515625 C-7.58184449 44.80272469 -17.15802261 44.8171365 -24.52734375 42.5625 C-31.09617606 39.26695023 -35.07579444 34.02468774 -38.14453125 27.46875 C-39.67615148 19.96381085 -39.11811894 14.50892581 -35.39453125 7.70703125 C-27.27413162 -3.7903615 -12.31178907 -5.62365569 0 0 Z " fill="#22305E" transform="translate(124.76953125,31.59375)"/>
<path d="M0 0 C4.24875 -0.103125 8.4975 -0.20625 12.875 -0.3125 C14.85282471 -0.38078003 14.85282471 -0.38078003 16.87060547 -0.45043945 C24.63412698 -0.54093019 30.62804966 0.33562906 37 5 C40.76227266 9.37066992 40.44190415 13.57258373 40.28515625 19.11328125 C39.92839459 22.72488221 39.21138848 25.10231854 37 28 C35.35663341 28.72219698 33.69066619 29.39678358 32 30 C32.6496875 30.98742187 33.299375 31.97484375 33.96875 32.9921875 C34.81273833 34.28630293 35.65647535 35.58058229 36.5 36.875 C36.92925781 37.52597656 37.35851562 38.17695312 37.80078125 38.84765625 C41 43.7734375 41 43.7734375 41 46 C36.71 46 32.42 46 28 46 C22 35.25 22 35.25 22 33 C18.7 33 15.4 33 12 33 C12 37.29 12 41.58 12 46 C8.04 46 4.08 46 0 46 C0 30.82 0 15.64 0 0 Z " fill="#24315F" transform="translate(230,29)"/>
<path d="M0 0 C4.29 0 8.58 0 13 0 C15.86935254 6.58333705 18.73378242 13.16878033 21.59228516 19.75683594 C22.51285983 21.87770203 23.43437085 23.99816201 24.35693359 26.11816406 C25.61660718 29.01470958 26.87143848 31.91330505 28.125 34.8125 C28.51486084 35.70670654 28.90472168 36.60091309 29.30639648 37.5222168 C29.83922241 38.75838745 29.83922241 38.75838745 30.3828125 40.01953125 C30.69621582 40.74245361 31.00961914 41.46537598 31.33251953 42.21020508 C32 44 32 44 32 46 C27.71 46 23.42 46 19 46 C18.34 43.36 17.68 40.72 17 38 C6.605 38.495 6.605 38.495 -4 39 C-4.99 41.31 -5.98 43.62 -7 46 C-10.96 46 -14.92 46 -19 46 C-17.0283699 39.85032831 -14.79923248 33.93931387 -12.20703125 28.02734375 C-11.85613937 27.21882462 -11.5052475 26.41030548 -11.14372253 25.57728577 C-10.03687574 23.02912408 -8.92478979 20.48328976 -7.8125 17.9375 C-7.05498888 16.19611561 -6.29782424 14.45458045 -5.54101562 12.71289062 C-3.69800667 8.47350899 -1.85029978 4.23620429 0 0 Z " fill="#24315F" transform="translate(194,29)"/>
<path d="M0 0 C0.93005859 0.433125 0.93005859 0.433125 1.87890625 0.875 C1.31344788 4.83320859 0.06988277 7.5409053 -2.12109375 10.875 C-2.91773438 10.58625 -3.714375 10.2975 -4.53515625 10 C-5.59476562 9.62875 -6.654375 9.2575 -7.74609375 8.875 C-8.79023438 8.50375 -9.834375 8.1325 -10.91015625 7.75 C-14.13883881 6.87016436 -16.79353669 6.71511738 -20.12109375 6.875 C-20.45109375 8.195 -20.78109375 9.515 -21.12109375 10.875 C-16.59322079 13.26708383 -12.2389808 15.21165124 -7.37109375 16.8125 C-4.17275141 17.97029105 -2.12495633 18.87194586 0.56640625 21 C2.53142423 25.3043251 2.50710787 29.22477579 1.87890625 33.875 C0.16082929 38.12497984 -2.03765447 39.8830784 -6.12109375 41.875 C-14.6335523 44.59822499 -24.1231571 43.57994604 -32.1328125 39.9453125 C-34.12109375 38.875 -34.12109375 38.875 -37.12109375 36.875 C-35.9652409 32.96288267 -34.76574413 30.0004959 -32.12109375 26.875 C-31.25484375 27.49375 -30.38859375 28.1125 -29.49609375 28.75 C-23.98332585 32.22100201 -19.63246243 33.25065589 -13.12109375 32.875 C-12.13109375 32.38 -12.13109375 32.38 -11.12109375 31.875 C-11.61609375 29.4 -11.61609375 29.4 -12.12109375 26.875 C-13.64089844 26.42060547 -13.64089844 26.42060547 -15.19140625 25.95703125 C-16.54320064 25.5345955 -17.89475041 25.11137642 -19.24609375 24.6875 C-20.24382812 24.39262695 -20.24382812 24.39262695 -21.26171875 24.09179688 C-26.19132376 22.5210894 -29.367593 20.45166408 -33.12109375 16.875 C-34.8816091 13.35396929 -34.79126241 9.70811421 -34.12109375 5.875 C-26.85960081 -6.70843403 -11.81196635 -4.95174135 0 0 Z " fill="#23305E" transform="translate(333.12109375,32.125)"/>
<path d="M0 0 C4.125 -0.0825 8.25 -0.165 12.5 -0.25 C13.78455078 -0.28641602 15.06910156 -0.32283203 16.39257812 -0.36035156 C23.44194097 -0.42834479 28.04029578 0.14868171 34 4 C37.92346004 7.92346004 38.22485353 11.03137579 38.25 16.375 C38.1861054 18.25076302 38.10914609 20.12632538 38 22 C34.37 22 30.74 22 27 22 C26.67 18.37 26.34 14.74 26 11 C18.575 10.01 18.575 10.01 11 9 C11 21.21 11 33.42 11 46 C7.37 46 3.74 46 0 46 C0 30.82 0 15.64 0 0 Z " fill="#222E5D" transform="translate(28,21)"/>
<path d="M0 0 C3.63 0 7.26 0 11 0 C11 11.88 11 23.76 11 36 C17.6 36 24.2 36 31 36 C31 39.3 31 42.6 31 46 C20.77 46 10.54 46 0 46 C0 30.66666667 0 15.33333333 0 0 Z " fill="#212F5E" transform="translate(143,29)"/>
<path d="M0 0 C3.96 0 7.92 0 12 0 C12 15.18 12 30.36 12 46 C8.04 46 4.08 46 0 46 C0 30.82 0 15.64 0 0 Z " fill="#253260" transform="translate(278,29)"/>
<path d="M0 0 C0.33 0 0.66 0 1 0 C1 4.95 1 9.9 1 15 C2.32 15.33 3.64 15.66 5 16 C4.01 16.33 3.02 16.66 2 17 C1.67 20.3 1.34 23.6 1 27 C1.66 27.33 2.32 27.66 3 28 C2.34 28 1.68 28 1 28 C1 33.94 1 39.88 1 46 C0.67 46 0.34 46 0 46 C0 40.39 0 34.78 0 29 C-2.31 29.66 -4.62 30.32 -7 31 C-12.19532585 31.07861779 -17.27930421 30.6073044 -22.1875 28.875 C-27.3752376 27.26103719 -32.27940058 28.12214315 -37.0625 30.5625 C-37.701875 31.036875 -38.34125 31.51125 -39 32 C-37.81965557 28.45896672 -36.3919039 27.52497314 -33.16015625 25.79296875 C-26.74494429 23.43801752 -20.29786499 25.0173388 -14 27 C-11.33634213 27.42901392 -8.68482486 27.71738686 -6 28 C-6 24.7 -6 21.4 -6 18 C-6.72445312 18.02320312 -7.44890625 18.04640625 -8.1953125 18.0703125 C-16.34572491 18.22245353 -16.34572491 18.22245353 -20.125 16.9375 C-24.23757852 15.59644179 -27.81978509 16.03178846 -32 17 C-34.96048102 18.40381035 -34.96048102 18.40381035 -37 20 C-36.00147198 17.10426876 -35.03905844 16.02734091 -32.5 14.25 C-25.95017391 11.9107764 -19.73774247 12.5838877 -13.16015625 14.48828125 C-8.84661879 15.51011381 -4.41015314 15.66923851 0 16 C0 10.72 0 5.44 0 0 Z " fill="#BBCFDF" transform="translate(142,29)"/>
<path d="M0 0 C10.9947644 -0.48328635 10.9947644 -0.48328635 15.25 1.5625 C17 4 17 4 17.625 7.5 C17 11 17 11 15.25 13.4375 C10.1674438 15.88103663 5.59815683 15.24607283 0 15 C0 10.05 0 5.1 0 0 Z " fill="#F3F3F5" transform="translate(242,38)"/>
<path d="M0 0 C0.33 0 0.66 0 1 0 C1 3.3 1 6.6 1 10 C1.66 10.33 2.32 10.66 3 11 C2.34 11 1.68 11 1 11 C1 16.94 1 22.88 1 29 C0.67 29 0.34 29 0 29 C0 23.39 0 17.78 0 12 C-2.31 12.66 -4.62 13.32 -7 14 C-12.19532585 14.07861779 -17.27930421 13.6073044 -22.1875 11.875 C-27.3752376 10.26103719 -32.27940058 11.12214315 -37.0625 13.5625 C-37.701875 14.036875 -38.34125 14.51125 -39 15 C-37.81965557 11.45896672 -36.3919039 10.52497314 -33.16015625 8.79296875 C-26.74494429 6.43801752 -20.29786499 8.0173388 -14 10 C-11.33634213 10.42901392 -8.68482486 10.71738686 -6 11 C-6 8.36 -6 5.72 -6 3 C-5.67 3 -5.34 3 -5 3 C-5 5.31 -5 7.62 -5 10 C-3.35 10 -1.7 10 0 10 C0 6.7 0 3.4 0 0 Z " fill="#C3E2F3" transform="translate(142,46)"/>
<path d="M0 0 C1.97885999 2.96828999 3.25864997 5.77447054 4.625 9.0625 C5.07101563 10.12597656 5.51703125 11.18945312 5.9765625 12.28515625 C7 15 7 15 7 17 C2.71 17 -1.58 17 -6 17 C-5.19980115 12.19880692 -4.45116558 9.35886096 -2.4375 5.125 C-1.75494141 3.67480469 -1.75494141 3.67480469 -1.05859375 2.1953125 C-0.70925781 1.47085938 -0.35992187 0.74640625 0 0 Z " fill="#E6E7EC" transform="translate(200,41)"/>
<path d="M0 0 C-1.2421875 1.5546875 -1.2421875 1.5546875 -3 3 C-4.9453125 2.8203125 -4.9453125 2.8203125 -7.125 2.125 C-13.19310116 0.53385295 -18.42905508 0.68829341 -24.0625 3.5625 C-24.701875 4.036875 -25.34125 4.51125 -26 5 C-25.00147198 2.10426876 -24.03905844 1.02734091 -21.5 -0.75 C-14.20440621 -3.35556921 -7.26962803 -2.15396386 0 0 Z " fill="#B3CFE3" transform="translate(131,44)"/>
<path d="M0 0 C0.33 0 0.66 0 1 0 C1 3.3 1 6.6 1 10 C1.66 10.33 2.32 10.66 3 11 C2.34 11 1.68 11 1 11 C1 16.94 1 22.88 1 29 C0.67 29 0.34 29 0 29 C0 23.39 0 17.78 0 12 C-2.31 12.66 -4.62 13.32 -7 14 C-7.33 13.01 -7.66 12.02 -8 11 C-7.34 11 -6.68 11 -6 11 C-6 8.36 -6 5.72 -6 3 C-5.67 3 -5.34 3 -5 3 C-5 5.31 -5 7.62 -5 10 C-3.35 10 -1.7 10 0 10 C0 6.7 0 3.4 0 0 Z " fill="#B5C1CF" transform="translate(142,46)"/>
<path d="M0 0 C2.625 0.375 2.625 0.375 5 1 C5.625 3.375 5.625 3.375 6 6 C5.34 6.66 4.68 7.32 4 8 C1.375 7.625 1.375 7.625 -1 7 C-1.625 4.625 -1.625 4.625 -2 2 C-1.34 1.34 -0.68 0.68 0 0 Z " fill="#ABA8A9" transform="translate(200,79)"/>
<path d="M0 0 C0 3.3 0 6.6 0 10 C-1.65 10 -3.3 10 -5 10 C-5 7.03 -5 4.06 -5 1 C-2 0 -2 0 0 0 Z " fill="#FCFEFE" transform="translate(142,46)"/>
<path d="M0 0 C1.65 0 3.3 0 5 0 C5.79953138 3.28696233 6.09658936 4.71023192 5 8 C4.01 7.34 3.02 6.68 2 6 C2 6.66 2 7.32 2 8 C1.34 8 0.68 8 0 8 C0 5.36 0 2.72 0 0 Z " fill="#B7B4B4" transform="translate(133,79)"/>
<path d="M0 0 C1.65 0 3.3 0 5 0 C5.59732819 2.76264289 6 5.16032769 6 8 C5.34 8 4.68 8 4 8 C4 7.34 4 6.68 4 6 C3.01 6 2.02 6 1 6 C0.67 6.66 0.34 7.32 0 8 C0 5.36 0 2.72 0 0 Z " fill="#B6B3B4" transform="translate(78,79)"/>
<path d="M0 0 C-0.99 0.495 -0.99 0.495 -2 1 C-2 1.66 -2 2.32 -2 3 C-3.7325 2.87625 -3.7325 2.87625 -5.5 2.75 C-10.39304621 2.71504967 -13.86849494 4.53867784 -18 7 C-16.82195726 3.46587178 -15.3945434 2.54234878 -12.1875 0.78515625 C-8.20987569 -0.64252676 -4.16225039 -0.30149097 0 0 Z " fill="#ADC7DD" transform="translate(121,54)"/>
<path d="M0 0 C0.33 0.99 0.66 1.98 1 3 C2.32 3 3.64 3 5 3 C5 2.01 5 1.02 5 0 C5.66 0 6.32 0 7 0 C7 2.64 7 5.28 7 8 C6.34 8 5.68 8 5 8 C5 7.01 5 6.02 5 5 C3.68 5 2.36 5 1 5 C0.67 5.99 0.34 6.98 0 8 C0 5.36 0 2.72 0 0 Z " fill="#ADAAAB" transform="translate(174,79)"/>
<path d="M0 0 C1.98 0 3.96 0 6 0 C4.68 0.33 3.36 0.66 2 1 C2 1.66 2 2.32 2 3 C3.32 3 4.64 3 6 3 C6 3.66 6 4.32 6 5 C4.68 5 3.36 5 2 5 C2 5.66 2 6.32 2 7 C3.32 7.33 4.64 7.66 6 8 C4.02 8 2.04 8 0 8 C0 5.36 0 2.72 0 0 Z " fill="#B0AEAF" transform="translate(155,79)"/>
<path d="M0 0 C0.66 0 1.32 0 2 0 C2 2.64 2 5.28 2 8 C1.34 8 0.68 8 0 8 C-0.33 7.34 -0.66 6.68 -1 6 C-1.99 6.495 -1.99 6.495 -3 7 C-1.125 2.25 -1.125 2.25 0 0 Z " fill="#ADAAAB" transform="translate(99,79)"/>
<path d="M0 0 C0.33 0.66 0.66 1.32 1 2 C1.66 2 2.32 2 3 2 C3 1.34 3 0.68 3 0 C3.66 0.33 4.32 0.66 5 1 C3.02 5.455 3.02 5.455 1 10 C0.67 10 0.34 10 0 10 C0 6.7 0 3.4 0 0 Z " fill="#E5EAEE" transform="translate(174,65)"/>
<path d="M0 0 C1.65 0 3.3 0 5 0 C5.33 1.32 5.66 2.64 6 4 C5.34 4 4.68 4 4 4 C4 3.34 4 2.68 4 2 C3.01 2 2.02 2 1 2 C1 3.98 1 5.96 1 8 C0.67 8 0.34 8 0 8 C0 5.36 0 2.72 0 0 Z " fill="#A6A3A4" transform="translate(219,79)"/>
<path d="M0 0 C1.32 0 2.64 0 4 0 C4 1.32 4 2.64 4 4 C2.35 3.67 0.7 3.34 -1 3 C-0.67 2.01 -0.34 1.02 0 0 Z " fill="#FAF7F9" transform="translate(200,81)"/>
<path d="M0 0 C1.32 0.33 2.64 0.66 4 1 C3.67 2.32 3.34 3.64 3 5 C2.01 5 1.02 5 0 5 C0 3.35 0 1.7 0 0 Z " fill="#D4D1D2" transform="translate(210,80)"/>
</svg>
